<?xml version="1.0" encoding="iso-8859-1"?>
<!-- Generator: Adobe Illustrator 18.0.0, SVG Export Plug-In . SVG Version: 6.00 Build 0)  -->
<!DOCTYPE svg PUBLIC "-//W3C//DTD SVG 1.1//EN" "http://www.w3.org/Graphics/SVG/1.1/DTD/svg11.dtd">
<svg version="1.1" id="Capa_1" xmlns="http://www.w3.org/2000/svg" xmlns:xlink="http://www.w3.org/1999/xlink" x="0px" y="0px"
	 viewBox="0 0 144.773 144.773" style="enable-background:new 0 0 144.773 144.773;" xml:space="preserve">
<g>
	<circle style="fill:#2B5971;" cx="72.387" cy="72.386" r="72.386"/>
	<g>
		<defs>
			<circle id="SVGID_1_" cx="72.387" cy="72.386" r="72.386"/>
		</defs>
		<clipPath id="SVGID_2_">
			<use xlink:href="#SVGID_1_"  style="overflow:visible;"/>
		</clipPath>
		<g style="clip-path:url(#SVGID_2_);">
			<path style="fill:#583A2F;" d="M102.172,63.438c0-16.71-13.545-34.338-30.255-34.338c-16.71,0-30.255,17.628-30.255,34.338
				s13.545,30.255,30.255,30.255C88.627,93.692,102.172,80.147,102.172,63.438z"/>
			<g>
				<path style="fill:#583A2F;" d="M54.975,127.85h38.412c0,0,3.92-41.85,3.42-58.425s-16.334-26.742-30.5-26.742
					S37.475,106.608,54.975,127.85z"/>
				<path style="fill:#F1C9A5;" d="M107.053,116.94c-3.087-5.844-17.258-10.246-26.499-12.557V84.606H64.22v19.777
					c-9.241,2.311-23.412,6.713-26.499,12.557c-3.449,12.258-6.334,27.833-6.334,27.833h41h41
					C113.387,144.773,111.438,128.073,107.053,116.94z"/>
				<path style="fill:#E4B692;" d="M107.053,116.94c-3.087-5.844-17.258-10.246-26.499-12.557V84.606h-8.167v17.958v9.378v32.831h41
					C113.387,144.773,111.438,128.073,107.053,116.94z"/>
				<path style="opacity:0.1;fill:#DDAC8C;" d="M64.22,97.273c1.469,4.217,7.397,6.634,11.751,6.634
					c1.575,0,3.107-0.264,4.583-0.747V84.606H64.22V97.273z"/>
				<path style="fill:#F1C9A5;" d="M93.387,67.357c0-17.074-9.402-26.783-21-26.783c-11.598,0-21,9.709-21,26.783
					s9.402,30.917,21,30.917C83.984,98.274,93.387,84.432,93.387,67.357z"/>
				<path style="fill:#E4B692;" d="M90.19,79.199c-3.807-0.366-6.377-4.14-5.733-8.423c0.637-4.287,4.242-7.47,8.051-7.105
					c3.805,0.365,6.371,4.137,5.729,8.424C97.599,76.382,93.997,79.562,90.19,79.199z"/>
				<path style="fill:#F1C9A5;" d="M45.822,72.095c-0.643-4.287,1.924-8.059,5.727-8.424c3.811-0.364,7.416,2.818,8.055,7.105
					c0.643,4.283-1.93,8.057-5.734,8.423C50.062,79.562,46.461,76.382,45.822,72.095z"/>
				<path style="fill:#E4B692;" d="M93.387,67.357c0-17.074-9.402-26.783-21-26.783v57.7C83.984,98.274,93.387,84.432,93.387,67.357
					z"/>
				<path style="fill:#C51C39;" d="M80.554,104.384v-4.461c-2.64,0.227-5.37,0.347-8.167,0.347c-2.797,0-5.527-0.12-8.167-0.347
					v4.461c-9.241,2.311-23.412,6.713-26.499,12.557c-3.449,12.258-6.334,27.833-6.334,27.833h41h41c0,0-1.948-16.7-6.334-27.833
					C103.966,111.097,89.795,106.694,80.554,104.384z"/>
			</g>
			<g>
				<g>
					<path style="fill:none;stroke:#FFFFFF;stroke-width:1.4308;stroke-linecap:round;stroke-linejoin:round;" d="M62.374,104.678
						c0,0.009,0,0.017,0,0.025"/>
					
						<path style="fill:none;stroke:#FFFFFF;stroke-width:1.4308;stroke-linecap:round;stroke-linejoin:round;stroke-dasharray:0.0479,1.9175;" d="
						M62.561,106.61c0.9,4.605,4.957,8.079,9.827,8.079c5.203,0,9.479-3.968,9.966-9.043"/>
					<path style="fill:none;stroke:#FFFFFF;stroke-width:1.4308;stroke-linecap:round;stroke-linejoin:round;" d="M82.4,104.703
						c0-0.009,0-0.017,0-0.025"/>
				</g>
			</g>
			<path style="fill:#583A2F;" d="M41.662,63.438c0,0-3.688,61.177-6.438,81.336h21l-4.268-56.769"/>
			<path style="fill:#583A2F;" d="M102.171,63.438c0,0,3.688,61.177,6.438,81.336h-21l2.781-53.508"/>
			<path style="fill:#583A2F;" d="M73.595,37.149c-12.551,0-23.932,13.977-23.932,27.222c0,0.051,0.003,0.1,0.003,0.15h11.853
				l1.122-8.839v8.839h12v-8.839l2.104,8.839h7.614v-7.339l1.826,7.339h8.924c0-0.051,0.003-0.1,0.003-0.15
				C95.112,51.126,86.145,37.149,73.595,37.149z"/>
		</g>
	</g>
</g>
<g>
</g>
<g>
</g>
<g>
</g>
<g>
</g>
<g>
</g>
<g>
</g>
<g>
</g>
<g>
</g>
<g>
</g>
<g>
</g>
<g>
</g>
<g>
</g>
<g>
</g>
<g>
</g>
<g>
</g>
</svg>
