<svg version="1.1" xmlns="http://www.w3.org/2000/svg" xmlns:xlink="http://www.w3.org/1999/xlink" width="47.99279" height="47.99279"><defs><linearGradient x1="9.27032" y1="11.37659" x2="62.00988" y2="59.90361" gradientUnits="userSpaceOnUse" id="color-1"><stop offset="0" stop-color="#000000" stop-opacity="0.2"></stop><stop offset="1" stop-color="#000000" stop-opacity="0"></stop></linearGradient><filter id="dropshadow-base"><feColorMatrix type="matrix" values="0 0 0 0 0  0 0 0 0 0  0 0 0 0 0  0 0 0 .8 0"></feColorMatrix> <feOffset dx="0" dy="1"></feOffset> <feGaussianBlur stdDeviation="1"></feGaussianBlur> <feComposite in="SourceGraphic"></feComposite></filter><filter id="dropshadow-banner" x="-10%" y="-10%" width="120%" height="130%"><feColorMatrix type="matrix" values="0 0 0 0 0  0 0 0 0 0  0 0 0 0 0  0 0 0 .4 0"></feColorMatrix> <feOffset dx="0" dy="1"></feOffset> <feGaussianBlur stdDeviation="0.5"></feGaussianBlur> <feComposite in="SourceGraphic"></feComposite></filter></defs><g transform="translate(-0.0036,-0.0036)"><g fill="none" fill-rule="nonzero" stroke="none" stroke-width="none" stroke-linecap="butt" stroke-linejoin="miter" stroke-miterlimit="10" stroke-dasharray="" stroke-dashoffset="0" font-family="none" font-weight="none" font-size="none" text-anchor="none" style="mix-blend-mode: normal"><path d="M2,24c0,-12.15026 9.84974,-22 22,-22c12.15026,0 22,9.84974 22,22c0,12.15026 -9.84974,22 -22,22c-12.15026,0 -22,-9.84974 -22,-22z" id="base 1 5" fill="#607d8b" stroke-width="1"></path><path d="M16.40129,26.78926c-1.01085,-1.01085 -1.60486,-2.06621 -1.84892,-3.28313c-0.06489,-0.31768 -0.07857,-0.48841 -0.07857,-1.01423c0.00103,-0.10494 0.00331,-0.21174 0.00654,-0.31255l-5.20854,-5.20854c-0.00765,-0.00765 0.01471,-0.01091 0.06283,-0.01091c0.04437,0 1.31121,-0.09215 2.81375,-0.20824c2.71133,-0.20491 2.73869,-0.20834 3.0255,-0.30732c0.60098,-0.21519 1.42055,-0.29717 1.98743,-0.20492c1.00884,0.1703 2.04386,0.75287 2.90753,1.61654l1.19172,1.19172l0.24773,-0.19592c1.90201,-1.50939 4.14556,-3.0255 6.471,-4.37433c1.87124,-1.08597 4.07384,-2.18551 5.77104,-2.88215l-0.00001,-0.00001c0.31055,-0.12632 0.56672,-0.2253 0.5737,-0.21831l0.00001,0.00001c0.00001,0.00001 0.00002,0.00001 0.00003,0.00002l11.65504,11.65504c0.01389,0.32093 0.02091,0.64364 0.02091,0.96799c0,8.75841 -5.11804,16.32144 -12.5265,19.86147z" fill="url(#color-1)" stroke-width="1"></path><path d="M33.75031,11.59525c-1.6972,0.69665 -3.89981,1.79619 -5.77104,2.88215c-2.32544,1.34883 -4.56899,2.86495 -6.47101,4.37433l-0.37564,0.29707l-0.06831,-0.08199c-0.03752,-0.04778 -0.15703,-0.20492 -0.26286,-0.35169c-0.96645,-1.33182 -2.32554,-2.25381 -3.64016,-2.47573c-0.56687,-0.09225 -1.38645,-0.01026 -1.98743,0.20492c-0.28681,0.09899 -0.31417,0.10241 -3.0255,0.30733c-1.50254,0.11609 -2.76938,0.20824 -2.81374,0.20824c-0.17082,0 -0.0171,0.04104 0.65218,0.17414c1.69036,0.33127 2.63619,0.57029 3.47971,0.87762c0.51215,0.1844 1.4615,0.58055 1.48202,0.61808c0.03752,0.06147 -0.20834,1.97032 -0.32443,2.53036c-0.03762,0.17756 -0.08541,0.40984 -0.10925,0.51225c-0.02052,0.10241 -0.03762,0.4712 -0.04104,0.81958c0,0.52583 0.01368,0.69654 0.07857,1.01424c0.24586,1.22589 0.84684,2.28781 1.87134,3.30547c0.60098,0.59756 1.19169,1.04834 2.66013,2.01821c0.83316,0.55309 1.36241,0.8741 2.3527,1.43081c0.39274,0.2185 0.81616,0.46094 0.93909,0.53951c0.92541,0.58055 1.66984,1.23958 3.72899,3.30205c1.09954,1.10638 1.48544,1.47186 1.47166,1.40345c-0.04778,-0.28349 -0.37211,-1.88834 -0.48831,-2.41085c-0.48489,-2.19567 -1.0416,-4.10804 -1.47176,-5.05387c-0.09225,-0.20824 -0.19124,-0.42342 -0.21528,-0.47804l-0.04426,-0.10251l0.9083,0.01368c0.76495,0.01026 2.24697,-0.04436 2.29123,-0.08189c0.00342,-0.00684 -0.03752,-0.16056 -0.09889,-0.34153c-0.06147,-0.18098 -0.10251,-0.33459 -0.09567,-0.34495c0.01036,-0.00674 0.25954,0.10251 0.56003,0.24586l0.54283,0.25602l0.99029,-0.27987c0.54293,-0.15371 1.00397,-0.28701 1.02108,-0.29707c0.01368,-0.00674 -0.07173,-0.11619 -0.19114,-0.24244c-0.11951,-0.12293 -0.28349,-0.30049 -0.36879,-0.38932c-0.17766,-0.19114 -0.23228,-0.20492 0.60772,0.14677l0.59082,0.24586l0.6728,-0.24586c0.36879,-0.13641 0.68628,-0.25602 0.70339,-0.26618c0.0171,-0.01016 -0.12635,-0.1674 -0.32453,-0.35179l-0.35511,-0.33459l0.6044,0.2015l0.60792,0.19808l1.59479,-0.57019c0.88094,-0.31417 1.68342,-0.60118 1.78593,-0.63518c0.10241,-0.03088 0.19808,-0.07173 0.21518,-0.08199c0.03752,-0.03752 -1.65615,-0.78185 -3.16222,-1.38977c-1.73452,-0.70007 -4.2514,-1.60153 -5.28263,-1.89186c-0.21518,-0.05805 -0.40632,-0.11951 -0.4201,-0.13309c-0.01358,-0.0171 0.35853,-0.56687 0.82974,-1.22931c0.46788,-0.66254 0.85388,-1.20889 0.85388,-1.21231c0,-0.00684 -0.10603,-0.02384 -0.23922,-0.0341c-0.12957,-0.01368 -0.23902,-0.0342 -0.23902,-0.04446c0,-0.01016 0.50893,-0.74775 1.13033,-1.63563c0.6214,-0.88788 1.13375,-1.62547 1.13717,-1.64247c0,-0.01368 -0.10935,-0.03762 -0.24586,-0.05131c-0.13651,-0.01016 -0.25602,-0.02726 -0.26286,-0.0341c-0.01378,-0.01368 0.26286,-0.39958 1.78251,-2.48257c0.45762,-0.62492 0.82984,-1.14391 0.8231,-1.14733c-0.00684,-0.00704 -0.26307,0.09195 -0.57371,0.2183z" fill="none" stroke-width="0"></path><path d="M33.75031,11.59525c0.31065,-0.12635 0.56687,-0.22534 0.57371,-0.2183c0.00674,0.00342 -0.36547,0.52241 -0.8231,1.14733c-1.51964,2.08299 -1.79629,2.46889 -1.78251,2.48257c0.00684,0.00684 0.12635,0.02394 0.26286,0.0341c0.13651,0.01368 0.24586,0.03762 0.24586,0.05131c-0.00342,0.017 -0.51577,0.75459 -1.13717,1.64247c-0.6214,0.88788 -1.13033,1.62547 -1.13033,1.63563c0,0.01026 0.10945,0.03078 0.23902,0.04446c0.13319,0.01026 0.23922,0.02726 0.23922,0.0341c0,0.00342 -0.386,0.54977 -0.85388,1.21231c-0.4712,0.66244 -0.84332,1.21221 -0.82974,1.22931c0.01378,0.01358 0.20492,0.07505 0.4201,0.13309c1.03124,0.29033 3.54811,1.19179 5.28263,1.89186c1.50606,0.60792 3.19974,1.35225 3.16222,1.38977c-0.0171,0.01026 -0.11277,0.0511 -0.21518,0.08199c-0.10251,0.034 -0.90499,0.32101 -1.78593,0.63518l-1.59479,0.57019l-0.60792,-0.19808l-0.6044,-0.2015l0.35511,0.33459c0.19818,0.1844 0.34163,0.34163 0.32453,0.35179c-0.0171,0.01016 -0.33459,0.12977 -0.70339,0.26618l-0.6728,0.24586l-0.59082,-0.24586c-0.84,-0.35169 -0.78537,-0.33791 -0.60772,-0.14677c0.08531,0.08883 0.24928,0.26639 0.36879,0.38932c0.11941,0.12625 0.20482,0.2357 0.19114,0.24244c-0.0171,0.01006 -0.47815,0.14335 -1.02108,0.29707l-0.99029,0.27987l-0.54283,-0.25602c-0.30049,-0.14335 -0.54967,-0.2526 -0.56003,-0.24586c-0.00684,0.01036 0.0342,0.16398 0.09567,0.34495c0.06137,0.18098 0.10231,0.33469 0.09889,0.34153c-0.04426,0.03752 -1.52628,0.09215 -2.29123,0.08189l-0.9083,-0.01368l0.04426,0.10251c0.02404,0.05463 0.12303,0.26981 0.21528,0.47804c0.43016,0.94583 0.98687,2.85821 1.47176,5.05387c0.11619,0.52251 0.44052,2.12736 0.48831,2.41085c0.01378,0.06841 -0.37211,-0.29707 -1.47166,-1.40345c-2.05915,-2.06247 -2.80358,-2.72149 -3.72899,-3.30205c-0.12293,-0.07857 -0.54635,-0.32101 -0.93909,-0.53951c-0.99029,-0.55671 -1.51954,-0.87772 -2.3527,-1.43081c-1.46844,-0.96987 -2.05915,-1.42065 -2.66013,-2.01821c-1.0245,-1.01766 -1.62547,-2.07957 -1.87134,-3.30547c-0.06489,-0.31769 -0.07857,-0.48841 -0.07857,-1.01424c0.00342,-0.34837 0.02052,-0.71717 0.04104,-0.81958c0.02384,-0.10241 0.07163,-0.33469 0.10925,-0.51225c0.11609,-0.56003 0.36195,-2.46889 0.32443,-2.53036c-0.02052,-0.03752 -0.96987,-0.43368 -1.48202,-0.61808c-0.84352,-0.30733 -1.78935,-0.54635 -3.47971,-0.87762c-0.66928,-0.13309 -0.823,-0.17414 -0.65218,-0.17414c0.04436,0 1.3112,-0.09215 2.81374,-0.20824c2.71133,-0.20492 2.7387,-0.20834 3.0255,-0.30733c0.60098,-0.21518 1.42055,-0.29717 1.98743,-0.20492c1.31462,0.22192 2.67371,1.14391 3.64016,2.47573c0.10583,0.14677 0.22534,0.30391 0.26286,0.35169l0.06831,0.08199l0.37564,-0.29707c1.90202,-1.50938 4.14557,-3.0255 6.47101,-4.37433c1.87123,-1.08596 4.07384,-2.1855 5.77104,-2.88215z" fill="#ffffff" stroke-width="0"></path><path d="M2,24c0,-12.15026 9.84974,-22 22,-22c12.15026,0 22,9.84974 22,22c0,12.15026 -9.84974,22 -22,22c-12.15026,0 -22,-9.84974 -22,-22z" id="base 1 1 1" fill="none" stroke-width="1"></path><g fill="#000000" stroke-width="1" font-family="Roboto, sans-serif" font-weight="400" font-size="14" text-anchor="start"></g><rect x="2" y="2" width="44" height="22" fill="none" stroke-width="1"></rect><path d="M2,24v-22h44v22z" fill="none" stroke-width="1"></path><path d="M2,24v-22h44v22z" fill="none" stroke-width="1"></path><path d="M2,24v-22h44v22z" fill="none" stroke-width="1"></path><path d="M2,24v-22h44v22z" fill="none" stroke-width="1"></path><path d="M24,2c12.15026,0 22,9.84974 22,22h-44c0,-12.15026 9.84974,-22 22,-22z" id="base 1 1 1" fill-opacity="0.1" fill="#000000" stroke-width="1"></path></g></g></svg>